<?xml version="1.0" encoding="utf-8"?>
<!-- Generator: Adobe Illustrator 22.1.0, SVG Export Plug-In . SVG Version: 6.00 Build 0)  -->
<svg version="1.1" id="Layer_1" xmlns="http://www.w3.org/2000/svg" xmlns:xlink="http://www.w3.org/1999/xlink" x="0px" y="0px"
	 viewBox="0 0 70.5 58.1" style="enable-background:new 0 0 70.5 58.1;" xml:space="preserve">
<style type="text/css">
	.st0{fill:#38ABE1;}
</style>
<path class="st0" d="M35.1,40.9l16.3-37h14v2.4c-1.3,0-2.4,0.2-3.2,0.5c-0.8,0.3-1.4,0.8-1.9,1.5c-0.4,0.7-0.7,1.6-0.9,2.9
	c-0.1,1.2-0.2,2.8-0.2,4.6v24.6c0,2.1,0.1,3.7,0.3,5c0.2,1.2,0.5,2.2,1,2.8c0.5,0.7,1.2,1.1,2.1,1.3c0.9,0.2,2.1,0.3,3.5,0.4v2.4
	H45.8v-2.4c1.5,0,2.6-0.2,3.5-0.4c0.9-0.2,1.6-0.7,2.1-1.3c0.5-0.6,0.8-1.5,1-2.7c0.2-1.1,0.3-2.7,0.3-4.7V11.7h-0.6L33.8,52.8h-1.4
	l-18-41.1h-0.3v28.6c0,2.1,0.1,3.7,0.3,5c0.2,1.2,0.5,2.2,1,2.8c0.5,0.7,1.2,1.1,2.1,1.3c0.9,0.2,2.1,0.3,3.5,0.4v2.4H3.5v-2.4
	c1.5,0,2.6-0.2,3.5-0.4c0.9-0.2,1.6-0.7,2.1-1.3c0.5-0.6,0.8-1.5,1-2.7c0.2-1.1,0.3-2.7,0.3-4.7V15.3c0-1.8-0.1-3.2-0.2-4.4
	C10,9.8,9.7,8.9,9.3,8.2C8.8,7.6,8.2,7.1,7.4,6.8S5.4,6.4,4.1,6.3V3.9h15l15.8,37H35.1z"/>
</svg>
