<?xml version="1.0" encoding="utf-8"?>
<!-- Generator: Adobe Illustrator 22.1.0, SVG Export Plug-In . SVG Version: 6.00 Build 0)  -->
<svg version="1.1" id="Layer_1" xmlns="http://www.w3.org/2000/svg" xmlns:xlink="http://www.w3.org/1999/xlink" x="0px" y="0px"
	 viewBox="0 0 228.7 97.1" style="enable-background:new 0 0 228.7 97.1;" xml:space="preserve">
<style type="text/css">
	.st0{fill:#FFFFFF;}
</style>
<g>
	<path class="st0" d="M38.1,29.6L49.1,4.4h9.5v1.6c-0.9,0-1.6,0.1-2.2,0.3c-0.6,0.2-1,0.5-1.3,1c-0.3,0.5-0.5,1.1-0.6,1.9
		c-0.1,0.8-0.1,1.9-0.1,3.2v16.7c0,1.4,0.1,2.5,0.2,3.4c0.1,0.8,0.3,1.5,0.7,1.9c0.3,0.5,0.8,0.8,1.4,0.9c0.6,0.1,1.4,0.2,2.4,0.3
		v1.6H45.3v-1.6c1,0,1.8-0.1,2.4-0.3c0.6-0.2,1.1-0.4,1.4-0.9c0.3-0.4,0.6-1,0.7-1.8c0.1-0.8,0.2-1.8,0.2-3.2V9.7h-0.4L37.1,37.7
		h-0.9L24,9.7h-0.2v19.5c0,1.4,0.1,2.5,0.2,3.4c0.1,0.8,0.3,1.5,0.7,1.9c0.3,0.5,0.8,0.8,1.4,0.9c0.6,0.1,1.4,0.2,2.4,0.3v1.6H16.6
		v-1.6c1,0,1.8-0.1,2.4-0.3c0.6-0.2,1.1-0.4,1.4-0.9c0.3-0.4,0.6-1,0.7-1.8c0.1-0.8,0.2-1.8,0.2-3.2V12.2c0-1.2,0-2.2-0.1-3
		c-0.1-0.8-0.3-1.4-0.6-1.9c-0.3-0.5-0.7-0.8-1.3-1c-0.6-0.2-1.3-0.3-2.2-0.4V4.4h10.2l10.7,25.2H38.1z"/>
	<path class="st0" d="M72.1,29.2c0,1.4,0.1,2.5,0.2,3.4c0.1,0.8,0.3,1.5,0.7,1.9c0.3,0.5,0.8,0.8,1.4,0.9c0.6,0.1,1.4,0.2,2.4,0.3
		v1.6H63v-1.6c1,0,1.8-0.1,2.4-0.3c0.6-0.2,1.1-0.4,1.4-0.9c0.3-0.4,0.6-1,0.7-1.8c0.1-0.8,0.2-1.8,0.2-3.2V12.2c0-1.2,0-2.2-0.1-3
		c-0.1-0.8-0.3-1.4-0.6-1.9c-0.3-0.5-0.7-0.8-1.3-1c-0.6-0.2-1.3-0.3-2.2-0.4V4.4h12.9v1.6c-0.9,0-1.6,0.1-2.2,0.3
		c-0.6,0.2-1,0.5-1.3,1c-0.3,0.5-0.5,1.1-0.6,1.9c-0.1,0.8-0.1,1.9-0.1,3.2V29.2z"/>
	<path class="st0" d="M106.8,12.7c0,2.3-0.7,4.2-2,5.7c-1.4,1.5-3.5,2.5-6.5,3l9.4,11.3c0.8,0.9,1.6,1.6,2.5,2
		c0.9,0.4,2,0.7,3.3,0.9v1.6h-8.2L94.8,23.9c-0.4-0.5-0.7-0.9-1-1.1c-0.3-0.3-0.7-0.5-1-0.7c-0.4-0.2-0.8-0.3-1.2-0.3
		c-0.5,0-1-0.1-1.7-0.1v8.9c0,1.1,0.1,1.9,0.2,2.6c0.1,0.7,0.4,1.2,0.8,1.6c0.4,0.4,1,0.6,1.8,0.7c0.8,0.1,1.8,0.2,3.1,0.2v1.6h-15
		v-1.6c1,0,1.8-0.1,2.4-0.3c0.6-0.1,1.1-0.4,1.4-0.7c0.3-0.3,0.6-0.8,0.7-1.4c0.1-0.6,0.2-1.4,0.2-2.4V10.9c0-1,0-1.8-0.1-2.4
		c-0.1-0.6-0.3-1.1-0.6-1.4c-0.3-0.4-0.7-0.6-1.3-0.7c-0.6-0.1-1.3-0.2-2.2-0.3V4.4h13.4c3.9,0,6.9,0.7,9.1,2.2
		C105.7,8.1,106.8,10.1,106.8,12.7z M89.8,19.6h3c2.8,0,4.9-0.5,6.3-1.6s2.1-2.7,2.1-5.1c0-2.3-0.5-3.9-1.6-4.9
		c-1.1-1-2.8-1.5-5.1-1.5h-3.9c-0.5,0-0.7,0.2-0.7,0.7V19.6z"/>
	<path class="st0" d="M140.3,12.7c0,2.3-0.7,4.2-2,5.7c-1.4,1.5-3.5,2.5-6.5,3l9.4,11.3c0.8,0.9,1.6,1.6,2.5,2
		c0.9,0.4,2,0.7,3.3,0.9v1.6h-8.2l-10.4-13.4c-0.4-0.5-0.7-0.9-1-1.1c-0.3-0.3-0.7-0.5-1-0.7c-0.4-0.2-0.8-0.3-1.2-0.3
		c-0.5,0-1-0.1-1.7-0.1v8.9c0,1.1,0.1,1.9,0.2,2.6c0.1,0.7,0.4,1.2,0.8,1.6c0.4,0.4,1,0.6,1.8,0.7c0.8,0.1,1.8,0.2,3.1,0.2v1.6h-15
		v-1.6c1,0,1.8-0.1,2.4-0.3c0.6-0.1,1.1-0.4,1.4-0.7c0.3-0.3,0.6-0.8,0.7-1.4c0.1-0.6,0.2-1.4,0.2-2.4V10.9c0-1,0-1.8-0.1-2.4
		c-0.1-0.6-0.3-1.1-0.6-1.4c-0.3-0.4-0.7-0.6-1.3-0.7c-0.6-0.1-1.3-0.2-2.2-0.3V4.4H128c3.9,0,6.9,0.7,9.1,2.2
		C139.2,8.1,140.3,10.1,140.3,12.7z M123.4,19.6h3c2.8,0,4.9-0.5,6.3-1.6c1.4-1,2.1-2.7,2.1-5.1c0-2.3-0.5-3.9-1.6-4.9
		c-1.1-1-2.8-1.5-5.1-1.5h-3.9c-0.5,0-0.7,0.2-0.7,0.7V19.6z"/>
	<path class="st0" d="M165.2,4c2.5,0,4.8,0.4,7,1.3c2.2,0.9,4,2.1,5.6,3.6c1.6,1.5,2.8,3.3,3.7,5.4c0.9,2.1,1.4,4.3,1.4,6.7
		c0,2.3-0.5,4.5-1.4,6.5c-0.9,2-2.2,3.8-3.8,5.3c-1.6,1.5-3.5,2.7-5.6,3.5c-2.2,0.9-4.5,1.3-6.9,1.3c-2.5,0-4.8-0.4-6.9-1.3
		c-2.2-0.9-4-2-5.6-3.5c-1.6-1.5-2.8-3.2-3.8-5.3c-0.9-2-1.4-4.2-1.4-6.5c0-2.4,0.5-4.7,1.4-6.7c0.9-2.1,2.2-3.9,3.7-5.4
		c1.6-1.5,3.5-2.7,5.6-3.6C160.3,4.5,162.7,4,165.2,4z M165.2,35.3c1.9,0,3.6-0.3,5-1c1.5-0.7,2.8-1.6,3.8-2.8s1.9-2.7,2.4-4.5
		c0.6-1.7,0.9-3.7,0.9-5.9c0-2.3-0.3-4.3-0.9-6.2c-0.6-1.8-1.4-3.4-2.4-4.7c-1.1-1.3-2.3-2.3-3.8-3c-1.5-0.7-3.2-1-5.1-1
		c-1.9,0-3.6,0.3-5.1,1c-1.5,0.7-2.8,1.7-3.8,3c-1.1,1.3-1.9,2.9-2.4,4.7c-0.6,1.8-0.9,3.9-0.9,6.2c0,2.2,0.3,4.1,0.9,5.9
		c0.6,1.7,1.4,3.2,2.4,4.5c1,1.2,2.3,2.2,3.8,2.8C161.6,35,163.3,35.3,165.2,35.3z"/>
	<path class="st0" d="M212.8,12.7c0,2.3-0.7,4.2-2,5.7c-1.4,1.5-3.5,2.5-6.5,3l9.4,11.3c0.8,0.9,1.6,1.6,2.5,2
		c0.9,0.4,2,0.7,3.3,0.9v1.6h-8.2l-10.4-13.4c-0.4-0.5-0.7-0.9-1-1.1c-0.3-0.3-0.7-0.5-1-0.7c-0.4-0.2-0.8-0.3-1.2-0.3
		c-0.5,0-1-0.1-1.7-0.1v8.9c0,1.1,0.1,1.9,0.2,2.6c0.1,0.7,0.4,1.2,0.8,1.6c0.4,0.4,1,0.6,1.8,0.7c0.8,0.1,1.8,0.2,3.1,0.2v1.6h-15
		v-1.6c1,0,1.8-0.1,2.4-0.3c0.6-0.1,1.1-0.4,1.4-0.7c0.3-0.3,0.6-0.8,0.7-1.4c0.1-0.6,0.2-1.4,0.2-2.4V10.9c0-1,0-1.8-0.1-2.4
		c-0.1-0.6-0.3-1.1-0.6-1.4c-0.3-0.4-0.7-0.6-1.3-0.7c-0.6-0.1-1.3-0.2-2.2-0.3V4.4h13.4c3.9,0,6.9,0.7,9.1,2.2
		C211.7,8.1,212.8,10.1,212.8,12.7z M195.8,19.6h3c2.8,0,4.9-0.5,6.3-1.6s2.1-2.7,2.1-5.1c0-2.3-0.5-3.9-1.6-4.9
		c-1.1-1-2.8-1.5-5.1-1.5h-3.9c-0.5,0-0.7,0.2-0.7,0.7V19.6z"/>
</g>
<g>
	<g>
		<path class="st0" d="M34.7,44.8c-6.9,8.5-13.8,16.9-21.1,25c-4.1,0-6.1,0-10.2,0c0.3-0.6,0.4-0.9,0.6-1.5C5,68.3,5.8,68.2,6.5,68
			c0.6-0.2,1.2-0.5,1.7-0.9c0.5-0.4,0.9-1,1.3-1.7c0.4-0.7,0.9-1.7,1.4-2.9c2.8-6.8,4.3-10.4,7.1-17.6c0.5-1.4,0.9-2.5,1.1-3.3
			c0.2-0.8,0.2-1.4,0-1.9c-0.2-0.4-0.5-0.7-1.1-0.9c-0.5-0.2-1.3-0.3-2.3-0.3c0.3-0.7,0.4-1,0.6-1.6c4.8,0,7.1,0,11.9,0
			c-0.3,0.7-0.4,1-0.6,1.6c-1,0-1.8,0.1-2.5,0.3c-0.7,0.1-1.3,0.4-1.8,0.9c-0.5,0.5-1,1.1-1.4,2c-0.4,0.8-1,2-1.5,3.5
			c-3.2,8-4.9,12.2-8,19.7c0.1,0,0.1,0,0.2,0c8.1-9.3,15.9-18.8,23.6-28.3c0.4,0,0.6,0,0.9,0c0.5,9.4,0.7,18.9,1,28.3
			c0.2,0,0.3,0,0.4,0c3.2-7.6,5-11.8,8.2-20c0.5-1.4,0.9-2.5,1.1-3.3c0.2-0.8,0.2-1.4,0-1.8c-0.2-0.4-0.5-0.7-1.1-0.9
			c-0.6-0.2-1.3-0.3-2.3-0.3c0.3-0.7,0.4-1,0.6-1.6c5.5,0,8.3,0,13.8,0c-0.2,0.6-0.4,1-0.6,1.6c-1,0-1.8,0.1-2.5,0.3
			c-0.7,0.1-1.3,0.4-1.8,0.9c-0.5,0.5-1,1.1-1.4,2c-0.4,0.8-0.9,2-1.5,3.5c-2.7,6.9-4.2,10.4-6.9,17c-0.5,1.3-0.9,2.3-1.1,3.1
			c-0.2,0.8-0.3,1.4-0.2,1.8c0.1,0.4,0.4,0.7,0.9,0.9c0.5,0.2,1.2,0.3,2.1,0.3c-0.3,0.6-0.4,0.9-0.6,1.5c-3.8,0-5.7,0-9.5,0
			c-0.5-9.1-0.4-14.7-0.7-25C34.8,44.8,34.8,44.8,34.7,44.8z"/>
		<path class="st0" d="M61.9,62.2c-0.5,1.3-0.9,2.3-1.2,3.1c-0.2,0.8-0.3,1.4-0.2,1.8c0.1,0.4,0.4,0.8,0.9,0.9
			c0.5,0.2,1.2,0.3,2.1,0.3c-0.3,0.6-0.4,0.9-0.6,1.5c-5.2,0-7.8,0-12.9,0c0.3-0.6,0.4-0.9,0.6-1.5c0.9-0.1,1.7-0.2,2.4-0.3
			s1.2-0.5,1.7-0.9c0.5-0.4,0.9-1,1.4-1.8c0.4-0.7,0.9-1.7,1.4-2.9c2.9-6.8,4.4-10.5,7.2-17.6c0.5-1.4,0.9-2.5,1.1-3.3
			c0.2-0.8,0.2-1.4,0-1.8c-0.2-0.4-0.5-0.7-1.1-0.9c-0.6-0.2-1.3-0.3-2.3-0.3c0.2-0.7,0.4-1,0.6-1.6c5.5,0,8.3,0,13.8,0
			c-0.2,0.6-0.4,1-0.6,1.6c-1,0-1.8,0.1-2.5,0.3c-0.7,0.1-1.2,0.4-1.8,0.9c-0.5,0.5-1,1.1-1.4,2c-0.4,0.8-0.9,2-1.5,3.4
			C66.1,52,64.7,55.6,61.9,62.2z"/>
		<path class="st0" d="M90.9,67.8c-2.7,1.4-6.1,2-10,2c-5.3,0-8,0-13.4,0c0.3-0.6,0.4-0.9,0.6-1.5c0.9-0.1,1.7-0.1,2.3-0.3
			c0.6-0.1,1.1-0.3,1.6-0.7s0.8-0.8,1.2-1.4c0.3-0.6,0.7-1.4,1.1-2.3c3.3-7.7,5.1-12,8.2-20.1c0.4-1,0.7-1.8,0.8-2.5
			c0.1-0.6,0.1-1.1-0.1-1.5c-0.2-0.3-0.6-0.6-1.2-0.7c-0.6-0.1-1.3-0.2-2.3-0.3c0.2-0.7,0.4-1,0.6-1.6c6,0,9,0,15,0
			c-0.2,0.6-0.4,1-0.6,1.6c-1.3,0-2.3,0.1-3.2,0.2c-0.8,0.1-1.5,0.4-2.1,0.8c-0.6,0.4-1,0.9-1.4,1.6c-0.4,0.7-0.8,1.6-1.2,2.6
			c-1.4,3.6-2.1,5.5-3.6,9.1c0.7,0,1.2,0,1.7-0.1c0.5,0,0.9-0.1,1.4-0.3c0.4-0.2,0.9-0.4,1.3-0.7c0.4-0.3,1-0.7,1.5-1.2
			c6.4-5.5,9.6-8.3,15.7-13.7c3.3,0,4.9,0,8.2,0c-0.2,0.6-0.4,1-0.6,1.6c-1.4,0.2-2.6,0.5-3.6,0.9c-1.1,0.4-2.2,1.1-3.3,2.1
			c-5.5,4.6-8.4,7-14,11.6c2.8,0.5,4.5,1.6,5.3,3.1c0.7,1.5,0.6,3.4-0.3,5.7C95.5,64.5,93.6,66.4,90.9,67.8z M77.4,67.3
			c-0.2,0.5-0.1,0.7,0.4,0.7c1.6,0,2.4,0,3.9,0c2.3,0,4.2-0.5,5.7-1.4s2.7-2.5,3.7-4.8c1-2.4,1-4.1,0.1-5.1c-0.9-1-2.8-1.6-5.7-1.6
			c-1.2,0-1.8,0-3,0C80.5,60.1,79.4,62.6,77.4,67.3z"/>
		<path class="st0" d="M124.4,67.8c-2.7,1.4-6.1,2-10,2c-5.3,0-8,0-13.4,0c0.3-0.6,0.4-0.9,0.7-1.5c0.9-0.1,1.7-0.1,2.3-0.3
			c0.6-0.1,1.2-0.3,1.6-0.7c0.4-0.3,0.8-0.8,1.2-1.4c0.4-0.6,0.7-1.4,1.2-2.3c3.3-7.7,5.1-12,8.3-20.1c0.4-1,0.6-1.8,0.8-2.5
			c0.1-0.6,0.1-1.1-0.1-1.5c-0.2-0.3-0.6-0.6-1.2-0.7c-0.6-0.1-1.3-0.2-2.3-0.3c0.2-0.7,0.4-1,0.6-1.6c6,0,9,0,15,0
			c-0.2,0.6-0.3,1-0.6,1.6c-1.3,0-2.3,0.1-3.2,0.2c-0.8,0.1-1.5,0.4-2.1,0.7c-0.5,0.4-1,0.9-1.4,1.6c-0.4,0.7-0.8,1.6-1.2,2.6
			c-1.4,3.6-2.1,5.5-3.6,9.1c0.7,0,1.2,0,1.7-0.1c0.5,0,0.9-0.1,1.4-0.3c0.4-0.2,0.9-0.4,1.3-0.7c0.4-0.3,1-0.7,1.5-1.2
			c6.4-5.5,9.6-8.3,15.7-13.6c3.3,0,4.9,0,8.2,0c-0.2,0.6-0.3,1-0.6,1.6c-1.3,0.2-2.6,0.5-3.6,0.9c-1.1,0.4-2.2,1.1-3.3,2
			c-5.5,4.6-8.3,7-14,11.6c2.8,0.5,4.5,1.6,5.2,3.1c0.7,1.5,0.6,3.4-0.4,5.7C129.1,64.5,127.2,66.4,124.4,67.8z M110.9,67.3
			c-0.2,0.5-0.1,0.7,0.4,0.7c1.6,0,2.4,0,3.9,0c2.3,0,4.2-0.5,5.7-1.4c1.5-0.9,2.7-2.5,3.7-4.8c1-2.4,1.1-4.1,0.1-5.1
			S122,55,119.2,55c-1.2,0-1.8,0-3,0C114.1,60.1,113,62.6,110.9,67.3z"/>
		<path class="st0" d="M145,69c-1.8-0.8-3.2-2-4.1-3.4c-0.9-1.5-1.4-3.2-1.5-5.3c0-2.1,0.5-4.3,1.5-6.8c1-2.4,2.3-4.6,4.1-6.6
			c1.7-2.1,3.7-3.9,5.8-5.4c2.2-1.5,4.5-2.7,6.9-3.6c2.5-0.9,4.9-1.3,7.4-1.3c2.5,0,4.6,0.4,6.5,1.3c1.9,0.9,3.3,2,4.4,3.5
			c1,1.5,1.6,3.3,1.7,5.4c0.1,2.1-0.3,4.3-1.3,6.6c-1,2.5-2.5,4.8-4.3,6.8c-1.8,2.1-3.8,3.8-6.1,5.3c-2.2,1.5-4.6,2.6-7.1,3.4
			c-2.5,0.8-5,1.2-7.5,1.2S146.8,69.8,145,69z M158.9,39.9c-1.7,0.7-3.4,1.6-4.9,2.8c-1.5,1.2-2.9,2.8-4.2,4.6
			c-1.3,1.8-2.4,3.8-3.3,6c-1,2.3-1.6,4.4-1.8,6.2c-0.2,1.8-0.1,3.4,0.4,4.6c0.5,1.3,1.4,2.2,2.6,2.9c1.2,0.7,2.8,1,4.6,1
			c1.9,0,3.7-0.3,5.5-1c1.8-0.7,3.5-1.6,5.1-2.9c1.6-1.3,3.1-2.8,4.4-4.6c1.4-1.8,2.5-3.9,3.5-6.3c0.9-2.2,1.4-4.2,1.6-6
			c0.1-1.8-0.1-3.3-0.7-4.5c-0.6-1.2-1.5-2.2-2.8-2.8c-1.3-0.7-2.8-1-4.7-1C162.5,38.9,160.7,39.2,158.9,39.9z"/>
		<path class="st0" d="M196.9,67.7c-2.8,1.4-6.1,2-10,2c-5.3,0-8,0-13.4,0c0.3-0.6,0.4-0.9,0.7-1.5c0.9-0.1,1.7-0.1,2.3-0.3
			c0.6-0.1,1.2-0.3,1.6-0.7c0.4-0.3,0.8-0.8,1.2-1.4c0.4-0.6,0.7-1.4,1.2-2.3c3.4-7.8,5.3-12.1,8.3-20.1c0.4-1,0.6-1.8,0.7-2.5
			c0.1-0.6,0.1-1.1-0.2-1.5c-0.2-0.3-0.6-0.6-1.2-0.7c-0.6-0.1-1.3-0.2-2.3-0.3c0.2-0.6,0.3-1,0.6-1.6c6,0,9,0,15,0
			c-0.2,0.6-0.3,1-0.5,1.6c-1.3,0-2.3,0.1-3.2,0.2c-0.8,0.1-1.5,0.4-2.1,0.7c-0.5,0.4-1,0.9-1.4,1.6c-0.4,0.7-0.8,1.5-1.2,2.6
			c-1.4,3.6-2.1,5.4-3.6,9.1c0.7,0,1.2,0,1.7-0.1c0.5,0,0.9-0.1,1.4-0.3c0.4-0.2,0.9-0.4,1.3-0.7c0.4-0.3,1-0.7,1.5-1.2
			c6.4-5.5,9.6-8.3,15.5-13.5c3.3,0,4.9,0,8.2,0c-0.2,0.6-0.3,1-0.5,1.6c-1.3,0.2-2.6,0.5-3.6,0.9c-1.1,0.4-2.1,1.1-3.3,2
			c-5.4,4.6-8.3,6.9-14,11.6c2.8,0.5,4.5,1.6,5.2,3.1c0.7,1.5,0.6,3.4-0.4,5.7C201.6,64.4,199.7,66.4,196.9,67.7z M183.4,67.2
			c-0.2,0.5-0.1,0.7,0.4,0.7c1.6,0,2.4,0,3.9,0c2.3,0,4.2-0.5,5.8-1.4c1.5-1,2.8-2.5,3.8-4.8c1-2.4,1.1-4.1,0.2-5.2
			c-0.9-1.1-2.8-1.6-5.7-1.6c-1.2,0-1.8,0-3,0C186.6,60,185.5,62.5,183.4,67.2z"/>
	</g>
</g>
<g>
	<path class="st0" d="M12.8,81.3v5.9h-3V74.9h3v5.4h5v-5.4h3v12.3h-3v-5.9H12.8z"/>
	<path class="st0" d="M29.5,74.6l5.8,12.6h-3.1l-1.5-3.4h-4.8l-1.6,3.4h-2l6-12.6H29.5z M26.5,82.7h3.7l-1.8-4L26.5,82.7z"/>
	<path class="st0" d="M36.9,74.9h3v12.3h-3V74.9z"/>
	<path class="st0" d="M43.1,74.9h4.6c0.8,0,1.5,0.1,2.1,0.3c0.6,0.2,1.1,0.4,1.5,0.7c0.4,0.3,0.7,0.7,0.9,1.1s0.3,0.9,0.3,1.3
		c0,0.3-0.1,0.7-0.2,1c-0.1,0.3-0.3,0.6-0.6,0.9c-0.2,0.3-0.5,0.5-0.9,0.7s-0.7,0.4-1.1,0.5l4.4,5.9h-3.3l-4.1-5.6h-0.5v5.6h-3V74.9
		z M46.1,80.5h0.7c0.4,0,0.7-0.1,1-0.2c0.3-0.1,0.6-0.3,0.8-0.4c0.2-0.2,0.4-0.4,0.5-0.7c0.1-0.3,0.2-0.6,0.2-0.9
		c0-0.3,0-0.6-0.1-0.9c-0.1-0.3-0.2-0.5-0.4-0.7s-0.4-0.4-0.6-0.5c-0.2-0.1-0.5-0.2-0.8-0.2h-1.2V80.5z"/>
	<path class="st0" d="M64.6,87.4c-0.7,0-1.4-0.1-1.9-0.3c-0.6-0.2-1-0.4-1.4-0.7c-0.4-0.3-0.7-0.7-0.9-1.1c-0.2-0.4-0.4-0.9-0.5-1.4
		H62c0.1,0.3,0.2,0.6,0.3,0.9c0.1,0.3,0.3,0.5,0.5,0.7c0.2,0.2,0.5,0.4,0.8,0.5c0.3,0.1,0.6,0.2,1,0.2c0.3,0,0.5,0,0.8-0.1
		c0.3-0.1,0.5-0.1,0.7-0.3c0.2-0.1,0.4-0.3,0.5-0.5c0.1-0.2,0.2-0.4,0.2-0.7c0-0.4-0.1-0.7-0.3-1c-0.2-0.3-0.4-0.5-0.7-0.8
		c-0.3-0.2-0.7-0.5-1-0.7c-0.4-0.2-0.8-0.4-1.2-0.6c-0.4-0.2-0.8-0.4-1.2-0.6c-0.4-0.2-0.7-0.5-1-0.7c-0.3-0.3-0.6-0.6-0.7-0.9
		s-0.3-0.7-0.3-1.2c0-0.5,0.1-0.9,0.3-1.4c0.2-0.4,0.5-0.8,0.9-1.1c0.4-0.3,0.9-0.5,1.5-0.7c0.6-0.2,1.3-0.3,2-0.3
		c0.6,0,1.2,0.1,1.7,0.3c0.5,0.2,0.9,0.4,1.3,0.7c0.4,0.3,0.7,0.6,1,1c0.3,0.4,0.5,0.8,0.6,1.3h-1.9c-0.1-0.3-0.2-0.6-0.4-0.8
		c-0.1-0.3-0.3-0.5-0.5-0.7c-0.2-0.2-0.5-0.4-0.8-0.5c-0.3-0.1-0.7-0.2-1.1-0.2c-0.4,0-0.7,0.1-1,0.2c-0.3,0.1-0.5,0.2-0.6,0.4
		c-0.2,0.2-0.3,0.3-0.4,0.5c-0.1,0.2-0.1,0.4-0.1,0.6c0,0.3,0.1,0.6,0.3,0.9c0.2,0.3,0.4,0.5,0.8,0.7c0.3,0.2,0.7,0.4,1.1,0.7
		c0.4,0.2,0.8,0.4,1.2,0.6c0.4,0.2,0.8,0.4,1.2,0.7c0.4,0.2,0.8,0.5,1.1,0.8c0.3,0.3,0.6,0.6,0.8,0.9c0.2,0.3,0.3,0.7,0.3,1.1
		c0,0.5-0.1,1-0.3,1.4c-0.2,0.4-0.5,0.8-0.9,1.1c-0.4,0.3-0.9,0.6-1.5,0.7C66.1,87.3,65.4,87.4,64.6,87.4z"/>
	<path class="st0" d="M82.6,74.9v1h-4.3v11.3h-3V75.9h-4.3v-1H82.6z"/>
	<path class="st0" d="M84.8,74.9h3v7.9c0,0.5,0.1,0.9,0.2,1.3c0.1,0.4,0.4,0.8,0.6,1.1c0.3,0.3,0.6,0.6,1,0.7
		c0.4,0.2,0.8,0.3,1.3,0.3c0.5,0,0.9-0.1,1.3-0.3c0.4-0.2,0.7-0.4,1-0.7c0.3-0.3,0.5-0.7,0.6-1.1c0.1-0.4,0.2-0.9,0.2-1.3v-7.9H96
		v7.9c0,0.6-0.1,1.2-0.3,1.8c-0.2,0.6-0.6,1.1-1,1.5c-0.5,0.4-1.1,0.8-1.8,1c-0.7,0.2-1.6,0.4-2.6,0.4c-0.9,0-1.7-0.1-2.4-0.4
		c-0.7-0.2-1.3-0.6-1.7-1s-0.8-0.9-1.1-1.5c-0.2-0.6-0.4-1.2-0.4-1.8V74.9z"/>
	<path class="st0" d="M99,74.9h4.5c1.2,0,2.2,0.1,3.2,0.4c1,0.3,1.8,0.7,2.5,1.2c0.7,0.5,1.2,1.2,1.6,1.9c0.4,0.7,0.6,1.6,0.6,2.6
		c0,0.9-0.2,1.7-0.5,2.4c-0.3,0.8-0.8,1.4-1.4,2c-0.6,0.6-1.4,1-2.3,1.3c-0.9,0.3-2,0.5-3.1,0.5H99V74.9z M102.1,85.9h1.6
		c0.6,0,1.2-0.1,1.7-0.3c0.5-0.2,1-0.5,1.4-1c0.4-0.4,0.7-0.9,0.9-1.6c0.2-0.6,0.3-1.3,0.3-2.1c0-0.7-0.1-1.3-0.3-1.9
		c-0.2-0.6-0.5-1.1-0.9-1.5c-0.4-0.4-0.8-0.8-1.4-1c-0.5-0.2-1.1-0.4-1.7-0.4h-1.6V85.9z"/>
	<path class="st0" d="M114,74.9h3v12.3h-3V74.9z"/>
	<path class="st0" d="M126.6,87.4c-1,0-1.9-0.2-2.8-0.5c-0.9-0.3-1.6-0.8-2.2-1.3c-0.6-0.6-1.1-1.3-1.5-2.1
		c-0.4-0.8-0.5-1.7-0.5-2.6c0-0.9,0.2-1.8,0.5-2.6c0.4-0.8,0.9-1.4,1.5-2c0.6-0.6,1.4-1,2.2-1.3c0.9-0.3,1.8-0.5,2.8-0.5
		c1,0,1.9,0.2,2.8,0.5c0.9,0.3,1.6,0.7,2.2,1.3c0.6,0.6,1.1,1.2,1.5,2c0.4,0.8,0.5,1.6,0.5,2.5c0,1-0.2,1.9-0.5,2.7
		c-0.4,0.8-0.9,1.5-1.5,2.1c-0.6,0.6-1.4,1-2.2,1.3C128.5,87.3,127.5,87.4,126.6,87.4z M126.6,86.4c0.6,0,1.1-0.1,1.6-0.4
		c0.5-0.3,0.8-0.7,1.1-1.1c0.3-0.5,0.5-1.1,0.7-1.7c0.2-0.7,0.2-1.4,0.2-2.2c0-0.8-0.1-1.5-0.2-2.1c-0.2-0.6-0.4-1.2-0.7-1.7
		c-0.3-0.5-0.7-0.8-1.1-1.1c-0.5-0.3-1-0.4-1.6-0.4c-0.6,0-1.1,0.1-1.6,0.4c-0.5,0.3-0.8,0.6-1.2,1.1c-0.3,0.5-0.5,1-0.7,1.7
		c-0.2,0.6-0.2,1.4-0.2,2.1c0,0.8,0.1,1.5,0.2,2.2c0.2,0.7,0.4,1.2,0.7,1.7c0.3,0.5,0.7,0.9,1.2,1.1
		C125.4,86.3,125.9,86.4,126.6,86.4z"/>
	<path class="st0" d="M145.5,74.6l5.8,12.6h-3.1l-1.5-3.4h-4.8l-1.6,3.4h-2l6-12.6H145.5z M142.5,82.7h3.7l-1.8-4L142.5,82.7z"/>
	<path class="st0" d="M152.8,74.9h1.9l7,7.8v-7.8h1.9v12.5h-1.3l-7.6-8.6v8.5h-1.9V74.9z"/>
	<path class="st0" d="M166.7,74.9h4.5c1.2,0,2.2,0.1,3.2,0.4c1,0.3,1.8,0.7,2.5,1.2c0.7,0.5,1.2,1.2,1.6,1.9
		c0.4,0.7,0.6,1.6,0.6,2.6c0,0.9-0.2,1.7-0.5,2.4s-0.8,1.4-1.4,2c-0.6,0.6-1.4,1-2.3,1.3c-0.9,0.3-2,0.5-3.1,0.5h-5V74.9z
		 M169.7,85.9h1.6c0.6,0,1.1-0.1,1.7-0.3c0.5-0.2,1-0.5,1.4-1s0.7-0.9,0.9-1.6c0.2-0.6,0.3-1.3,0.3-2.1c0-0.7-0.1-1.3-0.3-1.9
		c-0.2-0.6-0.5-1.1-0.9-1.5c-0.4-0.4-0.8-0.8-1.4-1c-0.5-0.2-1.1-0.4-1.7-0.4h-1.6V85.9z"/>
	<path class="st0" d="M190.7,87.4c-0.7,0-1.4-0.1-1.9-0.3c-0.6-0.2-1-0.4-1.4-0.7c-0.4-0.3-0.7-0.7-0.9-1.1
		c-0.2-0.4-0.4-0.9-0.5-1.4h2.1c0.1,0.3,0.2,0.6,0.3,0.9c0.1,0.3,0.3,0.5,0.5,0.7c0.2,0.2,0.5,0.4,0.8,0.5c0.3,0.1,0.6,0.2,1,0.2
		c0.3,0,0.5,0,0.8-0.1c0.3-0.1,0.5-0.1,0.7-0.3c0.2-0.1,0.4-0.3,0.5-0.5s0.2-0.4,0.2-0.7c0-0.4-0.1-0.7-0.3-1
		c-0.2-0.3-0.4-0.5-0.7-0.8c-0.3-0.2-0.7-0.5-1-0.7s-0.8-0.4-1.2-0.6c-0.4-0.2-0.8-0.4-1.2-0.6c-0.4-0.2-0.7-0.5-1-0.7
		c-0.3-0.3-0.6-0.6-0.7-0.9c-0.2-0.3-0.3-0.7-0.3-1.2c0-0.5,0.1-0.9,0.3-1.4c0.2-0.4,0.5-0.8,0.9-1.1c0.4-0.3,0.9-0.5,1.5-0.7
		c0.6-0.2,1.3-0.3,2-0.3c0.6,0,1.2,0.1,1.7,0.3c0.5,0.2,0.9,0.4,1.3,0.7c0.4,0.3,0.7,0.6,1,1c0.3,0.4,0.5,0.8,0.6,1.3h-1.9
		c-0.1-0.3-0.2-0.6-0.4-0.8c-0.1-0.3-0.3-0.5-0.5-0.7c-0.2-0.2-0.5-0.4-0.8-0.5c-0.3-0.1-0.7-0.2-1.1-0.2c-0.4,0-0.7,0.1-1,0.2
		c-0.3,0.1-0.5,0.2-0.6,0.4c-0.2,0.2-0.3,0.3-0.4,0.5c-0.1,0.2-0.1,0.4-0.1,0.6c0,0.3,0.1,0.6,0.3,0.9c0.2,0.3,0.4,0.5,0.8,0.7
		c0.3,0.2,0.7,0.4,1.1,0.7c0.4,0.2,0.8,0.4,1.2,0.6c0.4,0.2,0.8,0.4,1.2,0.7c0.4,0.2,0.8,0.5,1.1,0.8c0.3,0.3,0.6,0.6,0.8,0.9
		c0.2,0.3,0.3,0.7,0.3,1.1c0,0.5-0.1,1-0.3,1.4c-0.2,0.4-0.5,0.8-0.9,1.1c-0.4,0.3-0.9,0.6-1.5,0.7
		C192.2,87.3,191.5,87.4,190.7,87.4z"/>
	<path class="st0" d="M198,74.9h4.3c0.7,0,1.3,0.1,1.9,0.2c0.6,0.1,1.1,0.4,1.6,0.7c0.4,0.3,0.8,0.6,1,1.1c0.3,0.4,0.4,0.9,0.4,1.5
		c0,0.6-0.1,1.1-0.4,1.5c-0.3,0.4-0.6,0.8-1,1.1c-0.4,0.3-0.9,0.5-1.4,0.6c-0.5,0.1-1.1,0.2-1.6,0.2H201v5.4h-3V74.9z M201,80.7h1
		c0.3,0,0.6-0.1,0.9-0.2c0.3-0.1,0.5-0.3,0.6-0.5c0.2-0.2,0.3-0.5,0.4-0.7c0.1-0.3,0.1-0.6,0.1-0.9c0-0.4-0.1-0.7-0.2-1
		c-0.1-0.3-0.3-0.5-0.5-0.7c-0.2-0.2-0.4-0.3-0.7-0.5c-0.3-0.1-0.5-0.2-0.8-0.2H201V80.7z"/>
	<path class="st0" d="M214.1,74.6l5.8,12.6h-3.1l-1.5-3.4h-4.8l-1.6,3.4h-2l6-12.6H214.1z M211.1,82.7h3.7l-1.8-4L211.1,82.7z"/>
</g>
</svg>
